<svg width="400" height="400" xmlns="http://www.w3.org/2000/svg">

 <g>
  <title>Layer 1</title>
  <g>
   <path stroke-width="10.479" stroke="#000" fill="none" d="m127.49155,350.4712c0,-0.645 -2,-5.127 -4.443,-9.959c-13.026,-25.758 -27.484,-69.962 -34.498,-105.477c-9.604,-48.633 -12.636,-88.757 -9.314,-123.272c1.478,-15.353 1.79,-28.509 0.773,-32.565c-0.361,-1.438 -1.484,-4.202 -2.496,-6.141c-1.012,-1.94 -1.84,-3.821 -1.84,-4.182c0,-1.335 2.47,-2.91 6.08,-3.876c5.144,-1.378 17.239,-3.391 20.37,-3.391c3.718,0 4.985,1.344 6.06,6.428c0.44,2.086 1.275,5.29 1.854,7.12l1.053,3.329l5.705,-0.079c3.137,-0.043 8.593,-0.514 12.122,-1.047c8.488,-1.281 8.35,-1.124 7.792,-8.858c-0.587,-8.138 -0.478,-12.513 0.333,-13.302c0.433,-0.422 2.856,-0.831 6.85,-1.157c7.363,-0.6 36.868,-2.08 37.079,-1.859c0.081,0.085 0.395,4.22 0.697,9.187c0.303,4.968 0.64,9.48 0.75,10.026c0.186,0.927 0.703,1.032 7.679,1.568c12.523,0.962 21.013,1.157 25.096,0.574c4.14,-0.59 7.29,-1.87 8.195,-3.329c0.318,-0.513 0.797,-3.568 1.064,-6.788c0.584,-7.038 1.06,-8.89 2.672,-10.406c2.022,-1.9 6.9,-1.805 24.247,0.473c8.127,1.067 15.026,1.94 15.332,1.94c0.413,0 0.557,4.005 0.56,15.569c0.006,15.832 0.575,32.744 1.421,42.192c1.126,12.572 6.817,70.302 8.318,84.383c3.288,30.837 4.162,45.892 4.166,71.785c0.005,27.105 -1.522,46.409 -4.932,62.328l-0.47,2.189l-7.938,0.28c-5.413,0.192 -10.736,0.74 -16.733,1.723c-20.867,3.422 -74.233,9.787 -101.973,12.163c-9.77,0.837 -13.081,1.308 -16.002,2.279c-1.135,0.377 -2.866,0.829 -3.846,1.005c-1.665,0.3 -1.783,0.243 -1.783,-0.853z"/>
   <path fill="#fff" d="m127.00255,335.8172c-30.068,-63.296 -47.682,-155.17 -42.374,-221.024c0.67,-8.32 1.233,-19.968 1.25,-25.885c0.03,-10.24 -0.054,-10.94 -1.741,-14.579l-1.772,-3.822l3.416,-0.733c4.836,-1.037 16.094,-2.817 16.314,-2.579c0.1,0.11 0.948,3.073 1.882,6.586c0.934,3.513 2.017,7.22 2.408,8.236l0.71,1.849l7.58,-0.013c4.169,-0.007 10.454,-0.423 13.967,-0.924c12.522,-1.784 13.792,-3.22 13.54,-15.301l-0.162,-7.835l6.253,-0.44c10.705,-0.752 27.084,-1.554 27.327,-1.337c0.128,0.113 0.503,3.57 0.833,7.68c0.67,8.332 1.136,9.641 3.95,11.097c4.479,2.316 33.14,3.241 39.74,1.283c7.081,-2.101 8.872,-4.458 9.65,-12.699c0.245,-2.588 0.612,-5.559 0.817,-6.602l0.371,-1.895l4.475,0.438c6.554,0.641 20.889,2.294 23.803,2.745l2.522,0.39l0.012,14.564c0.022,24.756 0.757,34.234 9.05,116.756c3.232,32.17 4.119,44.456 4.73,65.55c0.647,22.328 -1.2,55.915 -3.72,67.669l-0.73,3.4l-6.801,0.445c-3.742,0.246 -11.668,1.183 -17.614,2.084c-21.729,3.292 -66.116,8.596 -93.17,11.133c-8.32,0.78 -16.338,1.693 -17.817,2.028c-1.479,0.335 -3.09,0.617 -3.578,0.626c-0.489,0.01 -2.793,-3.992 -5.12,-8.891l-0.001,0z"/>
   <path fill="#fff" d="m114.47355,158.5692c-3.221,-0.373 -6.215,-1.71 -8.415,-3.757c-2.71,-2.52 -2.721,-5.473 -0.038,-9.51c3.964,-5.962 11.438,-11.207 18.906,-13.267c2.034,-0.561 2.65,-0.622 6.181,-0.607c2.896,0.013 4.664,0.15 6.758,0.524c1.56,0.279 2.878,0.549 2.93,0.6c0.051,0.052 -0.196,0.532 -0.55,1.068c-1.095,1.654 -1.56,3.78 -1.703,7.78c-0.209,5.859 0.647,9.879 2.67,12.546c0.587,0.775 1.067,1.542 1.067,1.706c0,1.386 -5.848,2.403 -16.876,2.936c-5.805,0.281 -8.38,0.277 -10.93,-0.019zm108.268,-0.954c-3.13,-0.364 -5.964,-1.5 -11.75,-4.717l-5.284,-2.937l0.161,-0.85c0.09,-0.469 0.247,-2.296 0.352,-4.06c0.227,-3.827 0.69,-5.356 2.434,-8.03c4.472,-6.858 13.648,-11.7 22.174,-11.7c3.437,0 6.01,0.516 6.74,1.352c0.527,0.603 0.556,0.783 0.434,2.678c-0.071,1.117 -0.309,3.476 -0.528,5.24c-0.848,6.84 -0.091,9.924 3.55,14.47c1.864,2.325 1.984,2.62 1.296,3.168c-0.878,0.7 -6.044,3.153 -8.328,3.955c-3.825,1.344 -7.724,1.84 -11.251,1.43l0,0.001z"/>
  </g>
  <g id="svg_1" stroke-width="12.054" stroke="#000">
   <path id="svg_2" stroke-width="9.99976" d="m201.7591,149.99394c84.05,-55.219 -59.63356,-38.66861 -1.84194,-42.28494l2.638,0.422c1.39,0.222 5.246,0.193 9.609,-0.073c2.09,-0.127 2.832,-0.257 3.728,-0.654c1.047,-0.463 1.422,-0.502 5.843,-0.619c4.764,-0.125 6.287,-0.013 9.02,0.663c1.788,0.443 4.437,0.867 6.177,0.99c0.887,0.063 2.12,0.242 2.739,0.398a60.7,60.7 0 0 0 2.14,0.493c0.558,0.114 1.79,0.474 2.74,0.8c0.948,0.324 2.363,0.699 3.144,0.831c0.78,0.133 2.652,0.463 4.159,0.735c1.506,0.271 3.515,0.594 4.463,0.717c2.331,0.303 4.887,0.804 5.352,1.05c0.21,0.111 0.848,0.272 1.42,0.357c1.089,0.162 3.667,0.636 6.167,1.133c0.812,0.161 1.857,0.293 2.321,0.293c0.89,0 2.124,0.197 5.13,0.818c1.003,0.207 2.601,0.48 3.55,0.604l3.956,0.522c3.237,0.427 4.281,0.614 5.984,1.07c0.837,0.225 1.75,0.469 2.03,0.542c1.166,0.307 3.187,0.963 3.765,1.221c0.342,0.153 1.027,0.34 1.522,0.416c0.495,0.076 1.053,0.297 1.24,0.49c0.186,0.194 0.688,0.417 1.115,0.496c0.427,0.079 1.416,0.45 2.197,0.826c0.78,0.376 1.865,0.828 2.409,1.004c0.544,0.177 1.18,0.456 1.414,0.62c0.234,0.164 0.597,0.298 0.806,0.298c0.208,0 0.426,0.177 0.482,0.394c0.06,0.231 0.35,0.448 0.701,0.525c0.82,0.18 2.1,1.049 2.416,1.64c0.162,0.302 0.566,0.57 1.063,0.703c0.75,0.202 1.631,0.97 3.84,3.345c0.303,0.327 0.789,0.823 1.078,1.102c0.29,0.279 0.589,0.573 0.665,0.654c0.076,0.081 0.64,0.581 1.254,1.111c2.41,2.083 4.637,4.427 4.779,5.031c0.126,0.542 1.005,1.898 1.775,2.74c0.355,0.387 0.528,0.866 0.767,2.122c0.106,0.554 0.367,1.376 0.581,1.826c1,2.102 1.197,3.036 1.035,4.915c-0.084,0.983 -0.303,2.14 -0.487,2.573c-0.184,0.432 -0.335,1.043 -0.335,1.357c0,0.315 -0.09,0.629 -0.202,0.698c-0.112,0.068 -0.203,0.442 -0.203,0.83c0,0.388 -0.136,0.912 -0.302,1.166c-0.166,0.253 -0.48,0.98 -0.7,1.618c-0.219,0.636 -0.531,1.408 -0.694,1.713c-0.493,0.925 -0.941,2.021 -0.945,2.311c-0.002,0.15 -0.288,0.593 -0.635,0.984c-0.348,0.39 -0.886,1.27 -1.195,1.954c-0.31,0.684 -0.66,1.304 -0.78,1.378c-0.119,0.074 -0.357,0.427 -0.53,0.785c-0.327,0.68 -0.427,0.801 -3.553,4.327c-1.94,2.189 -8.024,8.394 -8.877,9.054c-0.252,0.195 -0.526,0.355 -0.608,0.355c-0.083,0 -0.41,0.224 -0.727,0.497c-0.318,0.273 -1.161,0.843 -1.875,1.267c-0.714,0.425 -1.35,0.93 -1.413,1.123c-0.108,0.327 -1.688,1.17 -2.197,1.17c-0.125,0.001 -0.539,0.267 -0.92,0.593c-0.38,0.325 -0.927,0.71 -1.216,0.857c-0.29,0.147 -0.813,0.478 -1.165,0.736c-0.351,0.258 -1.25,0.644 -1.997,0.857c-0.747,0.214 -1.51,0.56 -1.694,0.771c-0.439,0.5 -1.05,0.815 -2.301,1.187c-0.562,0.167 -1.49,0.556 -2.064,0.865c-0.574,0.31 -1.682,0.773 -2.463,1.03c-0.781,0.256 -1.968,0.715 -2.638,1.02c-1.845,0.838 -2.9,1.214 -3.414,1.214c-0.255,0 -0.641,0.134 -0.858,0.298a1.833,1.833 0 0 1 -0.9,0.311c-0.744,0.02 -2.863,0.66 -3.45,1.043c-0.279,0.182 -1.01,0.49 -1.623,0.684c-0.613,0.195 -1.558,0.668 -2.1,1.052c-0.54,0.383 -1.91,1.006 -3.042,1.384c-3.538,1.18 -4.298,1.46 -5.162,1.901c-0.46,0.235 -1.15,0.428 -1.531,0.428s-0.802,0.13 -0.935,0.29c-0.133,0.161 -0.53,0.355 -0.88,0.432c-0.352,0.078 -0.78,0.21 -0.95,0.293c-0.542,0.265 -1.746,0.608 -2.136,0.608c-0.206,0 -0.528,0.138 -0.714,0.307c-0.187,0.169 -0.853,0.44 -1.48,0.604c-0.627,0.163 -1.531,0.475 -2.01,0.693c-0.478,0.217 -1.919,0.639 -3.202,0.937c-1.283,0.298 -2.653,0.635 -3.043,0.75c-1.129,0.33 -24.96265,3.48233 -6.695,0.744l-38.53106,-57.33506z"/>
   <path id="svg_3" stroke-width="9.99976" d="m232.486,204.51c0.13,0 0.482,-0.227 0.783,-0.506c0.301,-0.28 0.738,-0.508 0.971,-0.508c0.233,0 0.53,-0.146 0.662,-0.325c0.184,-0.252 0.569,-0.32 1.696,-0.298c0.802,0.015 1.572,0.025 1.712,0.023c1.607,-0.023 8.541,-0.81 8.721,-0.99c0.13,-0.13 0.577,-0.236 0.995,-0.236c0.417,0 0.815,-0.09 0.884,-0.202c0.069,-0.112 0.315,-0.203 0.546,-0.203c0.231,0 0.705,-0.172 1.053,-0.381c0.348,-0.21 1.272,-0.49 2.053,-0.622c0.78,-0.132 1.694,-0.336 2.028,-0.453c0.335,-0.117 1.02,-0.33 1.522,-0.472c0.502,-0.143 1.187,-0.398 1.522,-0.568c1.237,-0.626 2.667,-1.18 3.753,-1.454c1.28,-0.323 3.21,-0.984 3.774,-1.292c0.212,-0.116 0.796,-0.387 1.298,-0.603c1.178,-0.507 2.253,-1.005 2.637,-1.223c0.858,-0.487 1.248,-0.642 1.618,-0.642c0.223,0 1.16,-0.311 2.082,-0.692c0.922,-0.381 2.361,-0.834 3.198,-1.006c0.868,-0.18 2.202,-0.666 3.107,-1.135c1.235,-0.64 1.786,-0.813 2.495,-0.786c0.763,0.029 1.094,-0.096 2.066,-0.78c0.636,-0.448 1.5,-0.938 1.918,-1.089c0.418,-0.15 0.76,-0.34 0.76,-0.422c0,-0.082 0.206,-0.211 0.457,-0.288c0.251,-0.076 0.593,-0.25 0.76,-0.387c0.168,-0.136 0.853,-0.459 1.522,-0.717c0.67,-0.259 1.304,-0.547 1.41,-0.641a0.79,0.79 0 0 1 0.453,-0.172c0.143,0 0.779,-0.342 1.413,-0.76c1.51,-0.997 2.896,-1.823 3.497,-2.083a6.891,6.891 0 0 0 1.02,-0.592c0.295,-0.21 0.968,-0.62 1.495,-0.908c0.993,-0.545 1.895,-1.05 3.798,-2.127c0.614,-0.347 1.64,-0.881 2.282,-1.187c0.642,-0.306 1.167,-0.623 1.167,-0.706c0,-0.317 1.769,-2.153 6.974,-7.239c2.87,-2.803 3.27,-3.28 3.894,-4.63c0.383,-0.828 0.696,-1.558 0.696,-1.622c0,-0.064 0.32,-0.506 0.71,-0.983c0.39,-0.476 0.71,-0.968 0.71,-1.092c0,-0.124 0.137,-0.278 0.304,-0.343c0.168,-0.064 0.305,-0.328 0.305,-0.587c0,-0.26 0.13,-0.602 0.289,-0.76c0.53,-0.531 1.13,-1.662 1.13,-2.134c0,-0.257 0.135,-0.726 0.3,-1.044c0.398,-0.771 0.914,-3.03 1.092,-4.779c0.119,-1.173 0.078,-1.557 -0.235,-2.206c-0.208,-0.432 -0.428,-1.092 -0.489,-1.467c-0.06,-0.375 -0.236,-0.786 -0.389,-0.913c-0.153,-0.127 -0.278,-0.348 -0.278,-0.492c0,-0.257 -1.026,-2.706 -1.42,-3.39c-0.112,-0.193 -0.203,-0.495 -0.203,-0.67c0,-0.5 -3.747,-4.231 -5.32,-5.296c-0.872,-0.59 -1.972,-1.616 -2.841,-2.648c-0.78,-0.926 -1.522,-1.686 -1.65,-1.69c-0.127,0 -0.495,-0.273 -0.817,-0.601c-0.321,-0.328 -0.887,-0.696 -1.257,-0.818c-1.096,-0.362 -3.197,-1.423 -3.655,-1.845c-0.484,-0.448 -3.928,-1.472 -8.095,-2.408a559.79,559.79 0 0 1 -8.623,-2.004c-1.394,-0.332 -2.992,-0.655 -3.55,-0.718a61.635,61.635 0 0 1 -2.333,-0.324c-0.725,-0.115 -1.958,-0.296 -2.739,-0.4a479.75,479.75 0 0 1 -4.26,-0.608c-1.562,-0.229 -3.48,-0.5 -4.26,-0.602c-4.468,-0.586 -7.252,-1.064 -8.408,-1.444c-0.747,-0.246 -1.548,-0.382 -1.869,-0.317c-0.333,0.066 -0.67,0.006 -0.828,-0.153c-0.53,-0.53 -1.166,-0.736 -2.323,-0.75c-2.04,-0.026 -3.234,-0.284 -4.102,-0.885c-0.592,-0.41 -0.979,-0.54 -1.382,-0.463c-0.308,0.06 -0.712,0.026 -0.896,-0.072c-0.185,-0.1 -0.825,-0.191 -1.422,-0.205c-1.165,-0.027 -2.319,-0.322 -2.812,-0.719c-0.167,-0.135 -0.67,-0.31 -1.115,-0.39c-0.447,-0.08 -1.085,-0.285 -1.419,-0.454c-0.333,-0.17 -1.043,-0.292 -1.578,-0.273c-0.534,0.018 -1.164,-0.07 -1.4,-0.195c-0.534,-0.286 -5.434,-1.36 -7.472,-1.637a53.518,53.518 0 0 0 -3.246,-0.313c-2.434,-0.148 -28.182,-0.03 -28.791,0.133c-0.277,0.074 -0.828,0.067 -1.224,-0.015s-1.633,-0.328 -2.75,-0.546c-1.115,-0.218 -2.53,-0.556 -3.144,-0.75c-0.804,-0.254 -1.937,-0.366 -4.057,-0.401l43.12,91.595z"/>
  </g>
  <path id="svg_4" fill="#fff" d="m125.34,149.797c0.495,-0.604 1.714,-2.467 2.709,-4.139c0.995,-1.672 2.544,-3.872 3.443,-4.89a288.063,288.063 0 0 0 4.39,-5.166c1.516,-1.824 4.18,-4.744 5.92,-6.489c1.74,-1.744 3.262,-3.483 3.383,-3.864c0.12,-0.382 1.358,-1.869 2.748,-3.306c1.391,-1.436 2.756,-3.044 3.034,-3.573c0.532,-1.013 0.502,-1.292 -0.824,-7.737c-0.276,-1.345 -0.676,-4.628 -0.889,-7.296c-0.468,-5.881 -1.58,-13.768 -2.445,-17.325c-1.271,-5.236 -1.208,-5.969 0.37,-4.257c3.364,3.651 11.03,18.96 13.455,26.87c0.98,3.194 1.003,3.23 2.106,3.23c0.79,0 1.328,-0.269 1.84,-0.92c0.399,-0.506 0.724,-1.08 0.724,-1.277c0,-0.196 0.365,-0.842 0.811,-1.437c0.7,-0.932 0.807,-1.466 0.78,-3.874c-0.04,-3.592 0.36,-9.837 1.04,-16.24l0.871,-8.206c0.183,-1.729 0.51,-4.134 0.727,-5.345c0.347,-1.949 0.445,-2.128 0.844,-1.559c0.248,0.355 0.857,2.252 1.354,4.216c0.496,1.964 1.277,4.473 1.734,5.574c1.65,3.975 2.997,8.037 4.399,13.263c0.785,2.928 1.92,6.7 2.521,8.382a934.48,934.48 0 0 1 2,5.653c0.725,2.082 1.12,2.714 1.989,3.195c0.695,0.385 1.259,0.489 1.571,0.291c0.917,-0.58 5.493,-0.32 9.464,0.539c3.947,0.853 4.042,0.857 17.751,0.65c9.427,-0.142 14.936,-0.08 17.432,0.196c4.175,0.462 10.506,1.783 14.336,2.992c1.44,0.455 3.435,0.925 4.432,1.044c0.998,0.118 2.333,0.428 2.969,0.688c0.635,0.26 2.084,0.584 3.22,0.721c1.135,0.137 2.313,0.384 2.618,0.55c0.86,0.466 7.375,1.595 17.144,2.971c7.964,1.122 20.035,3.603 25.319,5.204c3.301,1 7.485,3.482 10.104,5.995a161.879,161.879 0 0 0 4.898,4.482c1.99,1.728 2.597,2.525 3.583,4.714c2.534,5.627 2.664,6.064 2.402,8.04c-0.462,3.488 -1.465,5.947 -4.415,10.834a407.223,407.223 0 0 0 -1.729,2.888c-0.313,0.532 -2.827,3.245 -5.588,6.029c-4.428,4.466 -5.41,5.273 -8.35,6.858a202.555,202.555 0 0 0 -6.741,3.843c-1.875,1.126 -4.55,2.585 -5.946,3.24a134.69,134.69 0 0 0 -4.807,2.4c-1.248,0.663 -2.898,1.369 -3.667,1.57c-2.722,0.71 -10.514,3.497 -13.135,4.698c-1.462,0.67 -3.97,1.643 -5.573,2.162c-1.604,0.519 -3.35,1.168 -3.88,1.443c-0.532,0.274 -2.424,0.902 -4.206,1.394a446.585,446.585 0 0 0 -4.985,1.407c-2.064,0.604 -8.97,1.503 -11.7,1.523c-2.418,0.018 -4.812,1.313 -7.07,3.825c-1.44,1.6015 -2.21475,3.3765 -2.32963,5.42225c-0.05743,1.02287 0.0501,2.11344 0.32193,3.28384c0.13592,0.5852 0.3129,1.19037 0.53088,1.81701c0.10899,0.31332 0.22823,0.63202 0.3577,0.95627c0.06474,0.16212 0.13203,0.32564 0.20189,0.49057c0.03493,0.08247 0.07049,0.16529 0.1067,0.24846c0.0181,0.04159 0.03636,0.08327 0.05478,0.12503c0.00921,0.02088 0.01846,0.04179 0.02776,0.06272c0.00464,0.01046 0.0093,0.02093 0.01396,0.03141c0.00234,0.00523 0.00467,0.01047 0.00701,0.01571c0.00117,0.00262 0.00234,0.00524 0.00351,0.00786c0.00058,0.00131 0.00117,0.00262 0.00175,0.00393c0.0003,0.00066 0.00059,0.00132 0.00088,0.00197c0.00015,0.00033 0.00029,0.00066 0.00044,0.00099c0.00008,0.00017 0.00015,0.00033 0.00022,0.00049c0.00004,0.00008 0.00007,0.00016 0.00011,0.00024c0.00002,0.00005 0.00004,0.00009 0.00006,0.00013c0.00001,0.00002 0.00002,0.00004 0.00003,0.00006c0,0.00001 0,0.00002 0.00001,0.00003c0,0.00001 0,0.00001 0.00001,0.00001c0,0 0,0.00001 0,0.00001c0,0.00001 0,0.00001 0,0.00001c0,0 0,0 0,0l-103.785,-69.143z"/>
  <g id="svg_5" stroke-width="0.231" stroke="#000">
   <path id="svg_6" stroke-width="0.19163" d="m232.754,173.154c-0.583,-0.191 -1.172,-0.459 -1.308,-0.595c-0.137,-0.137 -0.453,-0.249 -0.703,-0.249c-0.25,0 -0.511,-0.091 -0.58,-0.203c-0.07,-0.111 -0.283,-0.203 -0.476,-0.203c-0.192,0 -0.826,-0.482 -1.408,-1.071l-1.058,-1.072l0,-1.368c0,-1.306 0.025,-1.377 0.558,-1.579c0.307,-0.116 0.786,-0.427 1.065,-0.692c1.026,-0.974 2.234,-1.022 3.276,-0.13c0.202,0.173 1.1,0.464 1.995,0.648c2.423,0.498 6.642,0.08 7.308,-0.722c0.143,-0.171 0.586,-0.303 1.022,-0.303c0.585,0 0.858,-0.12 1.141,-0.506c0.255,-0.346 0.676,-0.561 1.34,-0.684c0.624,-0.116 1.142,-0.368 1.46,-0.712c0.272,-0.293 0.571,-0.532 0.665,-0.532c0.094,0 0.563,-0.366 1.041,-0.812c0.48,-0.446 0.984,-0.811 1.123,-0.811c0.138,0 0.466,-0.229 0.728,-0.508c0.262,-0.279 0.683,-0.507 0.934,-0.507c0.32,0 0.477,-0.137 0.523,-0.456c0.053,-0.375 0.211,-0.468 0.878,-0.517c0.704,-0.052 0.907,0.037 1.513,0.662c0.7,0.722 0.7,0.724 0.753,2.872c0.03,1.229 0.152,2.27 0.284,2.428c0.179,0.216 0.124,0.367 -0.248,0.679l-1.47,1.234c-0.846,0.712 -3.68,2.228 -4.166,2.228c-0.087,0 -0.56,0.21 -1.05,0.467c-0.491,0.258 -1.212,0.592 -1.603,0.744c-0.39,0.151 -0.847,0.386 -1.014,0.52c-0.445,0.359 -5.748,1.748 -7.405,1.94c-2.194,0.255 -3.956,0.19 -5.118,-0.19zm-52.194,-9.062c-0.503,-0.163 -1.195,-0.245 -1.539,-0.182c-0.482,0.088 -0.836,-0.028 -1.552,-0.511c-1.193,-0.805 -4.01,-3.674 -4.01,-4.083c0,-0.363 -0.387,-0.802 -0.706,-0.802c-0.12,0 -0.66,0.585 -1.2,1.3c-0.802,1.062 -1.103,1.313 -1.652,1.377c-0.37,0.043 -0.808,0.029 -0.975,-0.031c-1.537,-0.556 -1.884,-4.36 -0.528,-5.803l0.41,-0.436l-0.566,-0.603c-0.633,-0.675 -2.317,-1.333 -2.983,-1.166c-0.274,0.069 -0.616,-0.046 -0.917,-0.307c-0.264,-0.23 -0.588,-0.417 -0.719,-0.417c-0.311,0 -0.98,-0.769 -1.278,-1.468c-0.196,-0.46 -0.162,-0.754 0.196,-1.724c0.795,-2.154 1.811,-2.65 4.04,-1.975c1.04,0.314 1.405,0.57 2.555,1.789l1.34,1.422l0.484,-0.594a9.97,9.97 0 0 0 0.73,-1.023c0.136,-0.235 0.542,-0.829 0.902,-1.319c2.021,-2.747 2.7,-3.604 3.744,-4.724a39.491,39.491 0 0 0 2.158,-2.568c1.266,-1.675 2.912,-3.166 3.684,-3.335a3.147,3.147 0 0 0 1.06,-0.495c0.256,-0.2 0.694,-0.434 0.973,-0.52a4.482,4.482 0 0 0 1.014,-0.506c1.122,-0.776 4.307,-1.197 5.782,-0.763c1.37,0.402 4.362,2.46 4.362,3c0,0.08 0.257,0.253 0.57,0.383c0.314,0.13 1.193,0.848 1.953,1.597c0.76,0.748 1.665,1.497 2.011,1.665c0.346,0.167 0.962,0.806 1.37,1.42c0.407,0.613 1.109,1.41 1.56,1.77c0.869,0.695 1.428,1.944 1.478,3.302c0.03,0.83 -0.52,2.954 -0.928,3.577c-0.155,0.238 -0.285,0.603 -0.287,0.812c-0.01,0.83 -0.28,1.697 -0.529,1.697c-0.144,0 -0.59,0.456 -0.99,1.014c-0.401,0.558 -0.82,1.015 -0.933,1.015c-0.111,0 -0.203,0.124 -0.203,0.275c0,0.152 -0.51,0.614 -1.132,1.027c-1.194,0.793 -1.971,1.433 -3.006,2.476c-0.843,0.85 -3.476,2.153 -4.484,2.221c-0.848,0.057 -2.803,0.668 -4.362,1.362c-0.86,0.383 -3.361,0.901 -5.173,1.073c-0.447,0.042 -1.223,-0.057 -1.725,-0.22l0.001,0.001z"/>
   <path id="svg_7" stroke-width="0.19163" d="m183.907,159.123c0.762,-0.401 1.453,-0.609 2.024,-0.609c1.065,0 1.47,-0.376 1.081,-1.006c-0.146,-0.236 -0.47,-0.48 -0.72,-0.544c-0.547,-0.14 -1.627,-1.327 -1.987,-2.188c-0.144,-0.343 -0.498,-0.845 -0.786,-1.115c-0.35,-0.328 -0.525,-0.706 -0.525,-1.13c0,-0.352 -0.13,-1.044 -0.29,-1.538c-0.434,-1.346 -0.79,-5.369 -0.519,-5.874c0.325,-0.608 0.011,-0.956 -0.387,-0.43c-0.179,0.238 -0.645,0.603 -1.036,0.81c-0.39,0.209 -0.802,0.56 -0.915,0.781c-0.113,0.222 -0.89,1.156 -1.725,2.078c-0.835,0.92 -1.58,1.836 -1.655,2.034c-0.074,0.198 -0.648,1.248 -1.275,2.334c-1.219,2.11 -1.207,1.98 -0.263,3.034c0.196,0.218 0.356,0.516 0.356,0.662c0,0.147 0.1,0.267 0.224,0.267c0.123,0 0.495,0.228 0.827,0.507c0.331,0.279 0.74,0.507 0.906,0.507c0.33,0 0.883,0.473 0.883,0.756c0,0.304 2.55,1.027 4.392,1.245c0.128,0.015 0.753,-0.246 1.39,-0.581zm10.13,-3.885c0.282,-0.129 0.565,-0.398 0.629,-0.599c0.063,-0.2 0.453,-0.57 0.866,-0.823c0.413,-0.252 0.781,-0.532 0.82,-0.624c0.038,-0.091 0.436,-0.63 0.884,-1.197c0.52,-0.659 0.853,-1.316 0.921,-1.82c0.094,-0.703 0.02,-0.882 -0.688,-1.651c-0.436,-0.475 -0.916,-1.183 -1.067,-1.574c-0.616,-1.602 -0.73,-1.805 -1.065,-1.893c-0.193,-0.05 -0.43,-0.398 -0.526,-0.773c-0.112,-0.436 -0.371,-0.776 -0.721,-0.946c-0.3,-0.145 -0.547,-0.396 -0.547,-0.558c0,-0.201 -0.228,-0.293 -0.728,-0.293c-0.422,0 -0.947,-0.17 -1.245,-0.406c-0.284,-0.223 -0.686,-0.405 -0.894,-0.405c-0.311,0 -0.377,0.153 -0.372,0.862c0.004,0.474 0.138,1.036 0.299,1.249c0.304,0.402 0.78,1.859 1.231,3.772c0.525,2.226 0.719,2.93 0.863,3.137c0.172,0.247 0.133,2.19 -0.074,3.71c-0.143,1.047 -0.137,1.065 0.378,1.065c0.288,0 0.754,-0.105 1.036,-0.233zm50.567,-3.769c-0.243,-0.137 -0.808,-0.344 -1.254,-0.46a10.943,10.943 0 0 1 -1.623,-0.598a54.629,54.629 0 0 0 -1.556,-0.708c-0.902,-0.39 -3.776,-3.41 -4.618,-4.855a129.63,129.63 0 0 0 -0.916,-1.55c-0.41,-0.671 -1.33,-2.76 -1.33,-3.015c0,-0.111 -0.426,-0.55 -0.947,-0.977a29.908,29.908 0 0 1 -1.724,-1.544c-0.74,-0.733 -0.778,-0.832 -0.778,-2.065c0,-0.908 -0.095,-1.391 -0.319,-1.615c-0.175,-0.175 -0.222,-0.319 -0.105,-0.319c0.118,0 0.267,-0.25 0.333,-0.557c0.217,-1.014 0.757,-2.377 1.137,-2.868c0.242,-0.312 0.374,-0.82 0.374,-1.433c0,-0.782 0.104,-1.048 0.586,-1.51c0.336,-0.322 0.74,-1.054 0.946,-1.712c0.494,-1.583 0.998,-2.302 2.982,-4.258c2.18,-2.152 4.651,-3.486 6.452,-3.486c0.68,0 1.287,0.119 1.523,0.298c0.217,0.164 0.594,0.3 0.839,0.304c0.244,0.007 0.5,0.098 0.57,0.21c0.068,0.111 0.388,0.202 0.71,0.202c0.321,0 0.634,0.082 0.696,0.18c0.061,0.1 0.351,0.242 0.645,0.315c0.569,0.143 1.093,0.569 1.093,0.888c0,0.107 0.307,0.34 0.682,0.518c0.375,0.178 0.797,0.462 0.938,0.632c0.14,0.17 0.366,0.308 0.502,0.308c0.261,0 2.372,2.197 3.559,3.704c0.39,0.496 1.326,1.44 2.079,2.098c0.753,0.658 1.37,1.338 1.37,1.511c0,0.173 0.093,0.408 0.207,0.523c0.115,0.114 0.3,1.023 0.413,2.018c0.19,1.68 0.375,2.51 0.826,3.697c0.272,0.717 0.22,4.178 -0.068,4.465c-0.29,0.29 -0.748,1.937 -0.76,2.736c-0.006,0.312 -0.188,0.758 -0.405,0.991c-0.218,0.234 -0.536,0.72 -0.707,1.08c-0.17,0.36 -0.455,0.775 -0.632,0.921c-0.177,0.147 -0.464,0.548 -0.639,0.89c-0.174,0.343 -0.899,1.203 -1.61,1.912c-0.71,0.708 -1.292,1.367 -1.292,1.465c0,0.247 -1.109,0.797 -1.605,0.797c-0.225,0 -0.501,0.172 -0.614,0.382c-0.112,0.21 -0.366,0.456 -0.565,0.546c-0.592,0.269 -4.894,0.22 -5.395,-0.061z"/>
   <path id="svg_8" stroke-width="0.19163" d="m248.523,144.33c0,-0.214 0.25,-0.57 0.555,-0.793l0.556,-0.405l-0.656,-0.373c-0.36,-0.205 -0.656,-0.515 -0.657,-0.688c-0.001,-0.442 -0.472,-1.406 -0.687,-1.408c-0.099,0 -0.327,0.162 -0.507,0.362c-0.18,0.2 -0.631,0.507 -1.001,0.681c-0.554,0.262 -0.797,0.276 -1.372,0.078c-0.933,-0.32 -1.912,-1.284 -1.912,-1.882c0,-0.265 -0.384,-1.228 -0.854,-2.141c-0.884,-1.717 -0.86,-1.594 -1.204,-6.026c-0.014,-0.168 0.023,-1.262 0.08,-2.432c0.103,-2.103 0.098,-2.133 -0.43,-2.587c-0.293,-0.252 -0.639,-0.459 -0.768,-0.459c-0.562,0 -1.84,0.913 -2.364,1.69a78.44,78.44 0 0 1 -1.066,1.535c-0.272,0.38 -0.494,0.892 -0.494,1.139s-0.274,0.794 -0.609,1.215c-0.575,0.723 -0.823,1.725 -0.428,1.725c0.1,0 0.24,0.237 0.314,0.528c0.175,0.7 1.457,2.404 2.624,3.49c0.516,0.48 0.939,1.048 0.939,1.261c0,0.506 2.358,2.873 3.145,3.157c0.437,0.158 0.626,0.372 0.672,0.76c0.05,0.417 0.176,0.542 0.546,0.542c0.265,0 0.535,0.085 0.6,0.19c0.379,0.613 2.165,1.18 3.811,1.21c1.022,0.017 1.167,-0.029 1.167,-0.369zm4.997,-3.82c0.264,-0.308 0.48,-0.677 0.48,-0.82c0,-0.145 0.186,-0.462 0.413,-0.705c0.501,-0.539 0.446,-0.996 -0.154,-1.26c-0.247,-0.109 -0.505,-0.45 -0.572,-0.76c-0.068,-0.309 -0.234,-0.63 -0.369,-0.715c-0.358,-0.224 -1.752,-2.405 -1.752,-2.74c0,-0.158 -0.063,-0.35 -0.14,-0.428c-0.078,-0.077 -0.17,-0.344 -0.207,-0.592c-0.143,-0.976 -0.484,-1.682 -0.904,-1.874c-0.396,-0.18 -0.58,-0.424 -0.962,-1.28c-0.176,-0.396 -0.53,-0.203 -0.494,0.268c0.043,0.55 0.894,3.768 1.112,4.207c0.096,0.194 0.175,0.475 0.175,0.625c0,0.15 0.228,0.834 0.507,1.52c0.28,0.687 0.507,1.558 0.507,1.938c0,0.379 0.136,0.802 0.302,0.94c0.167,0.137 0.254,0.329 0.195,0.424c-0.06,0.096 0.125,0.377 0.41,0.624c0.338,0.294 0.476,0.577 0.4,0.817c-0.184,0.578 0.498,0.455 1.053,-0.19l0,0.001z"/>
  </g>
  <path id="svg_9" fill="#fff" d="m180.135,159.047c-1.199,-0.309 -1.616,-0.504 -2.034,-0.952c-0.29,-0.31 -0.627,-0.563 -0.75,-0.563c-0.653,0 -2.485,-1.77 -2.924,-2.826c-0.032,-0.076 0.475,-1.102 1.127,-2.28c1.318,-2.38 4.217,-5.982 5.632,-6.996l0.807,-0.578l0.026,1.931c0.014,1.062 0.156,2.52 0.316,3.241c0.16,0.72 0.35,1.722 0.425,2.226c0.09,0.618 0.306,1.13 0.66,1.572c0.29,0.36 0.661,0.915 0.826,1.233c0.43,0.832 1.423,1.879 2.014,2.124c0.556,0.23 0.817,0.665 0.556,0.926c-0.091,0.091 -0.546,0.206 -1.01,0.256c-0.465,0.05 -1.347,0.316 -1.96,0.592c-1.325,0.594 -1.728,0.604 -3.71,0.094l-0.001,0zm12.717,-5.904c0.084,-2.135 0.076,-2.192 -0.72,-5.187c-0.444,-1.665 -1,-3.49 -1.238,-4.054c-0.372,-0.884 -0.581,-2.085 -0.363,-2.085c0.039,0 0.49,0.196 1.005,0.435c0.513,0.24 1.1,0.436 1.302,0.437c0.476,0.003 1.602,1.065 1.835,1.731c0.099,0.285 0.359,0.634 0.577,0.777c0.22,0.144 0.57,0.722 0.783,1.291c0.212,0.567 0.734,1.456 1.161,1.977c0.556,0.678 0.776,1.102 0.776,1.5c0,0.722 -1.54,3.046 -2.352,3.548c-0.327,0.202 -0.816,0.641 -1.086,0.976c-0.343,0.426 -0.682,0.64 -1.128,0.711l-0.637,0.102l0.085,-2.159zm52.323,-8.957c-0.4,-0.125 -0.95,-0.385 -1.222,-0.577c-0.273,-0.192 -0.665,-0.401 -0.87,-0.465c-0.206,-0.064 -0.468,-0.343 -0.583,-0.62c-0.115,-0.276 -0.432,-0.595 -0.706,-0.708c-0.61,-0.253 -2.905,-2.506 -3.065,-3.009c-0.064,-0.2 -0.74,-1.073 -1.504,-1.938s-1.59,-1.972 -1.836,-2.46c-0.246,-0.487 -0.518,-0.932 -0.605,-0.988c-0.196,-0.125 0.083,-0.896 0.573,-1.585c0.198,-0.278 0.435,-0.777 0.527,-1.108c0.282,-1.025 1.826,-3.149 2.716,-3.738c0.95,-0.629 1.047,-0.64 1.626,-0.196l0.437,0.336l0.02,3.371c0.027,4.261 0.191,5.304 1.172,7.437c0.428,0.933 0.825,1.9 0.881,2.15c0.12,0.526 0.844,1.299 1.572,1.676c0.816,0.422 1.631,0.33 2.5,-0.282c0.425,-0.3 0.845,-0.501 0.933,-0.447c0.087,0.054 0.244,0.413 0.347,0.798c0.129,0.476 0.358,0.802 0.723,1.023c0.52,0.317 0.525,0.33 0.167,0.521c-0.201,0.108 -0.415,0.39 -0.474,0.628c-0.103,0.41 -0.17,0.43 -1.356,0.42c-0.686,-0.006 -1.574,-0.114 -1.973,-0.24l0,0.001zm7.449,-3.63c0,-0.237 -0.166,-0.58 -0.37,-0.763c-0.437,-0.395 -0.609,-0.798 -1.03,-2.428a86.531,86.531 0 0 0 -1.008,-3.405c-0.38,-1.2 -0.812,-2.713 -0.958,-3.362c-0.273,-1.206 -0.158,-1.573 0.213,-0.68c0.113,0.275 0.434,0.668 0.713,0.874c0.325,0.241 0.573,0.639 0.693,1.116c0.337,1.334 1.04,2.818 1.837,3.882c0.43,0.574 0.783,1.134 0.783,1.245c0,0.11 0.246,0.441 0.546,0.735c0.324,0.317 0.5,0.628 0.43,0.763c-0.573,1.12 -1.156,1.994 -1.471,2.203c-0.353,0.234 -0.378,0.223 -0.378,-0.18z"/>
 </g>
</svg>